<?xml version="1.0" encoding="UTF-8"?>
<svg width="900" height="311.61" version="1.1" viewBox="0 0 675 233.71" xmlns="http://www.w3.org/2000/svg" xmlns:cc="http://creativecommons.org/ns#" xmlns:dc="http://purl.org/dc/elements/1.1/" xmlns:rdf="http://www.w3.org/1999/02/22-rdf-syntax-ns#" xmlns:xlink="http://www.w3.org/1999/xlink">
<defs>
<clipPath id="gd">
<path d="m68.906 59.055h2.4219v2.4258h-2.4219z"/>
</clipPath>
<filter id="a" x="0" y="0" width="1" height="1">
<feColorMatrix in="SourceGraphic" values="0 0 0 0 1 0 0 0 0 1 0 0 0 0 1 0 0 0 1 0"/>
</filter>
<mask id="bw">
<g filter="url(#a)">
<rect width="240.95" height="155.91" fill-opacity=".89"/>
</g>
</mask>
<clipPath id="ev">
<path d="m0.90625 0.054688h2.4219v2.4258h-2.4219z"/>
</clipPath>
<clipPath id="fg">
<rect width="4" height="3"/>
</clipPath>
<g id="l" clip-path="url(#fg)">
<g clip-path="url(#ev)">
<path d="m3.1211 1.9453c0.375-0.55469 0.23047-1.3086-0.32422-1.6836-0.55469-0.375-1.3086-0.23047-1.6836 0.32422-0.375 0.55469-0.23047 1.3086 0.32422 1.6836 0.55469 0.375 1.3086 0.23047 1.6836-0.32422" fill="#b8bde1"/>
</g>
</g>
<clipPath id="ek">
<path d="m58.559 85.047h7.4375v7.4375h-7.4375z"/>
</clipPath>
<mask id="bv">
<g filter="url(#a)">
<rect width="240.95" height="155.91" fill-opacity=".92"/>
</g>
</mask>
<clipPath id="do">
<path d="m0.55859 0.046875h7.4375v7.4375h-7.4375z"/>
</clipPath>
<clipPath id="dz">
<rect width="8" height="8"/>
</clipPath>
<g id="al" clip-path="url(#dz)">
<g clip-path="url(#do)">
<path d="m0.57031 4.0273c0.14453 2.0508 1.918 3.5938 3.9688 3.4453 2.0469-0.14062 3.5898-1.9219 3.4453-3.9688s-1.9219-3.5898-3.9688-3.4453c-2.0508 0.14453-3.5938 1.9219-3.4453 3.9688" fill="#b8bde1"/>
</g>
</g>
<clipPath id="dd">
<path d="m53.023 58.707h4.3633v2.3203h-4.3633z"/>
</clipPath>
<mask id="bk">
<g filter="url(#a)">
<rect width="240.95" height="155.91" fill-opacity=".83"/>
</g>
</mask>
<clipPath id="ch">
<path d="m0.023438 0.70703h4.3633v2.3203h-4.3633z"/>
</clipPath>
<clipPath id="cs">
<rect width="5" height="4"/>
</clipPath>
<g id="ae" clip-path="url(#cs)">
<g clip-path="url(#ch)">
<path d="m2.4062 2.9531c1.2031-0.22656 2.082-0.89453 1.9688-1.4922-0.11328-0.60156-1.1758-0.90234-2.375-0.67969-1.1992 0.22656-2.082 0.89453-1.9688 1.4922 0.11328 0.60156 1.1758 0.90625 2.375 0.67969" fill="#fab068"/>
</g>
</g>
<clipPath id="gc">
<path d="m55.41 72.465h1.7578v1.1641h-1.7578z"/>
</clipPath>
<mask id="az">
<g filter="url(#a)">
<rect width="240.95" height="155.91" fill-opacity=".75999"/>
</g>
</mask>
<clipPath id="fo">
<path d="m0.41016 0.46484h1.7578v1.1641h-1.7578z"/>
</clipPath>
<clipPath id="fr">
<rect width="3" height="2"/>
</clipPath>
<g id="ad" clip-path="url(#fr)">
<g clip-path="url(#fo)">
<path d="m1.4844 1.4766c0.47266-0.21875 0.76953-0.58203 0.66406-0.82031-0.10938-0.23828-0.58203-0.25391-1.0547-0.039062-0.47266 0.21484-0.76953 0.58594-0.66406 0.82031 0.10938 0.23828 0.58203 0.25391 1.0547 0.039063" fill="#fab068"/>
</g>
</g>
<clipPath id="fn">
<path d="m77.797 73.598h6.6602v6.6602h-6.6602z"/>
</clipPath>
<mask id="ar">
<g filter="url(#a)">
<rect width="240.95" height="155.91" fill-opacity=".98"/>
</g>
</mask>
<clipPath id="fl">
<path d="m0.79688 0.59766h6.6602v6.6602h-6.6602z"/>
</clipPath>
<clipPath id="fm">
<rect width="8" height="8"/>
</clipPath>
<g id="ac" clip-path="url(#fm)">
<g clip-path="url(#fl)">
<path d="m0.82031 3.543c-0.21094 1.8281 1.0977 3.4805 2.9219 3.6914 1.8281 0.21094 3.4805-1.0938 3.6914-2.9219 0.21484-1.8281-1.0938-3.4805-2.9219-3.6914-1.8281-0.21484-3.4805 1.0977-3.6914 2.9219" fill="#bdca30"/>
</g>
</g>
<clipPath id="fk">
<path d="m83.258 71.617h5.832v5.832h-5.832z"/>
</clipPath>
<mask id="aq">
<g filter="url(#a)">
<rect width="240.95" height="155.91" fill-opacity=".98"/>
</g>
</mask>
<clipPath id="fi">
<path d="m0.25781 0.61719h5.832v5.832h-5.832z"/>
</clipPath>
<clipPath id="fj">
<rect width="7" height="7"/>
</clipPath>
<g id="ab" clip-path="url(#fj)">
<g clip-path="url(#fi)">
<path d="m2.3867 6.3398c1.5508 0.43359 3.1602-0.47266 3.5938-2.0234 0.43359-1.5508-0.47266-3.1602-2.0234-3.5898-1.5508-0.43359-3.1602 0.46875-3.5938 2.0234-0.43359 1.5508 0.47266 3.1562 2.0234 3.5898" fill="#bdca30"/>
</g>
</g>
<clipPath id="fh">
<path d="m87.867 64.156h4.2695v4.2656h-4.2695z"/>
</clipPath>
<mask id="ap">
<g filter="url(#a)">
<rect width="240.95" height="155.91" fill-opacity=".7"/>
</g>
</mask>
<clipPath id="fe">
<path d="m0.86719 0.15625h4.2695v4.2656h-4.2695z"/>
</clipPath>
<clipPath id="ff">
<rect width="6" height="5"/>
</clipPath>
<g id="aa" clip-path="url(#ff)">
<g clip-path="url(#fe)">
<path d="m0.91797 2.7461c0.25 1.1484 1.3867 1.8789 2.5391 1.6289 1.1523-0.25391 1.8789-1.3906 1.6289-2.543-0.25391-1.1484-1.3906-1.8789-2.543-1.625-1.1484 0.25-1.8789 1.3867-1.625 2.5391" fill="#cc1e26"/>
</g>
</g>
<clipPath id="fd">
<path d="m60.449 93.582h2.3594v2.3594h-2.3594z"/>
</clipPath>
<mask id="ao">
<g filter="url(#a)">
<rect width="240.95" height="155.91" fill-opacity=".67999"/>
</g>
</mask>
<clipPath id="fb">
<path d="m0.44922 0.58203h2.3594v2.3594h-2.3594z"/>
</clipPath>
<clipPath id="fc">
<rect width="3" height="3"/>
</clipPath>
<g id="z" clip-path="url(#fc)">
<g clip-path="url(#fb)">
<path d="m0.48047 2.0391c0.15625 0.63281 0.79297 1.0234 1.4258 0.86719 0.63672-0.15234 1.0234-0.79297 0.86719-1.4258-0.15234-0.63281-0.79297-1.0195-1.4258-0.86719-0.63281 0.15625-1.0195 0.79297-0.86719 1.4258" fill="#b8bde1"/>
</g>
</g>
<clipPath id="fa">
<path d="m85.211 53.801h2.75v2.3047h-2.75z"/>
</clipPath>
<mask id="an">
<g filter="url(#a)">
<rect width="240.95" height="155.91" fill-opacity=".75999"/>
</g>
</mask>
<clipPath id="ey">
<path d="m0.21094 0.80078h2.75v2.3047h-2.75z"/>
</clipPath>
<clipPath id="ez">
<rect width="3" height="4"/>
</clipPath>
<g id="y" clip-path="url(#ez)">
<g clip-path="url(#ey)">
<path d="m1.8945 3.043c0.73828-0.21094 1.1992-0.86719 1.0312-1.4688-0.17188-0.60156-0.91016-0.91797-1.6484-0.70703-0.74219 0.20703-1.2031 0.86719-1.0312 1.4688 0.16797 0.59766 0.90625 0.91406 1.6484 0.70703" fill="#b8bde1"/>
</g>
</g>
<clipPath id="ex">
<path d="m82.844 63.188h2.2539v2.2539h-2.2539z"/>
</clipPath>
<mask id="am">
<g filter="url(#a)">
<rect width="240.95" height="155.91" fill-opacity=".74001"/>
</g>
</mask>
<clipPath id="eu">
<path d="m0.84375 0.1875h2.2539v2.2539h-2.2539z"/>
</clipPath>
<clipPath id="ew">
<rect width="4" height="3"/>
</clipPath>
<g id="x" clip-path="url(#ew)">
<g clip-path="url(#eu)">
<path d="m2.0469 2.4375c0.62109-0.042969 1.0898-0.58203 1.0469-1.2031-0.042969-0.61719-0.58203-1.0859-1.2031-1.043-0.62109 0.042969-1.0898 0.58203-1.0469 1.2031 0.046875 0.61719 0.58203 1.0859 1.2031 1.043" fill="#fab068"/>
</g>
</g>
<clipPath id="et">
<path d="m67.555 67.586h3.5586v2.9609h-3.5586z"/>
</clipPath>
<mask id="bu">
<g filter="url(#a)">
<rect width="240.95" height="155.91" fill-opacity=".85001"/>
</g>
</mask>
<clipPath id="er">
<path d="m0.55859 0.58594h3.5547v2.9609h-3.5547z"/>
</clipPath>
<clipPath id="es">
<rect width="5" height="4"/>
</clipPath>
<g id="w" clip-path="url(#es)">
<g clip-path="url(#er)">
<path d="m2.6875 3.4805c0.96484-0.24219 1.5859-1.0703 1.3906-1.8516-0.19922-0.78125-1.1367-1.2188-2.0977-0.97656-0.96094 0.24219-1.582 1.0703-1.3867 1.8516 0.19531 0.78125 1.1328 1.2188 2.0938 0.97656" fill="#b8bde1"/>
</g>
</g>
<clipPath id="eq">
<path d="m50.895 66.828h2.3555v2.3555h-2.3555z"/>
</clipPath>
<mask id="bt">
<g filter="url(#a)">
<rect width="240.95" height="155.91" fill-opacity=".98"/>
</g>
</mask>
<clipPath id="eo">
<path d="m0.89453 0.82812h2.3555v2.3555h-2.3555z"/>
</clipPath>
<clipPath id="ep">
<rect width="4" height="4"/>
</clipPath>
<g id="v" clip-path="url(#ep)">
<g clip-path="url(#eo)">
<path d="m2.7617 2.9609c0.52344-0.38281 0.64453-1.1172 0.26562-1.6445-0.37891-0.52734-1.1172-0.64453-1.6406-0.26562-0.53125 0.37891-0.64844 1.1172-0.26953 1.6406 0.38281 0.52734 1.1172 0.64844 1.6445 0.26953" fill="#bdca30"/>
</g>
</g>
<clipPath id="en">
<path d="m60.688 71.707h1.3125v2.0195h-1.3125z"/>
</clipPath>
<mask id="bs">
<g filter="url(#a)">
<rect width="240.95" height="155.91" fill-opacity=".7"/>
</g>
</mask>
<clipPath id="el">
<path d="m0.6875 0.70703h1.3125v2.0195h-1.3125z"/>
</clipPath>
<clipPath id="em">
<rect width="2" height="3"/>
</clipPath>
<g id="u" clip-path="url(#em)">
<g clip-path="url(#el)">
<path d="m0.6875 1.7344c0.015625 0.55859 0.32422 1.0039 0.6875 0.99609 0.35938-0.011719 0.64453-0.47266 0.625-1.0312-0.015625-0.55859-0.32031-1.0039-0.68359-0.99219-0.36328 0.007813-0.64453 0.46875-0.62891 1.0273" fill="#b8bde1"/>
</g>
</g>
<clipPath id="ej">
<path d="m66.863 90.625h4.7539v4.75h-4.7539z"/>
</clipPath>
<mask id="br">
<g filter="url(#a)">
<rect width="240.95" height="155.91" fill-opacity=".98"/>
</g>
</mask>
<clipPath id="eh">
<path d="m0.86328 0.625h4.7539v4.75h-4.7539z"/>
</clipPath>
<clipPath id="ei">
<rect width="6" height="6"/>
</clipPath>
<g id="t" clip-path="url(#ei)">
<g clip-path="url(#eh)">
<path d="m1.6211 1.2617c-0.96094 0.89453-1.0156 2.3945-0.12109 3.3555 0.89453 0.96094 2.3984 1.0156 3.3594 0.12109 0.96094-0.89453 1.0117-2.3984 0.11719-3.3555-0.89062-0.96094-2.3945-1.0156-3.3555-0.12109" fill="#bdca30"/>
</g>
</g>
<clipPath id="eg">
<path d="m75.383 67.812h4.2969v4.3008h-4.2969z"/>
</clipPath>
<mask id="bq">
<g filter="url(#a)">
<rect width="240.95" height="155.91" fill-opacity=".75999"/>
</g>
</mask>
<clipPath id="ee">
<path d="m0.38281 0.8125h4.2969v4.3008h-4.2969z"/>
</clipPath>
<clipPath id="ef">
<rect width="5" height="6"/>
</clipPath>
<g id="s" clip-path="url(#ef)">
<g clip-path="url(#ee)">
<path d="m2.4922 5.1133c1.1875 0.019532 2.168-0.92188 2.1875-2.1094 0.023437-1.1875-0.91797-2.168-2.1094-2.1914-1.1836-0.023437-2.1641 0.92188-2.1875 2.1094-0.023438 1.1875 0.92188 2.168 2.1094 2.1914" fill="#b8bde1"/>
</g>
</g>
<clipPath id="ed">
<path d="m78.344 59.762h2.2969v2.2969h-2.2969z"/>
</clipPath>
<mask id="bp">
<g filter="url(#a)">
<rect width="240.95" height="155.91" fill-opacity=".62"/>
</g>
</mask>
<clipPath id="eb">
<path d="m0.34375 0.76172h2.2969v2.2969h-2.2969z"/>
</clipPath>
<clipPath id="ec">
<rect width="3" height="4"/>
</clipPath>
<g id="r" clip-path="url(#ec)">
<g clip-path="url(#eb)">
<path d="m1.5547 0.76562c-0.63672-0.035156-1.1758 0.45312-1.2109 1.0859-0.03125 0.63281 0.45703 1.1758 1.0898 1.207 0.63281 0.035156 1.1719-0.45312 1.207-1.0859 0.03125-0.63672-0.45312-1.1758-1.0859-1.207" fill="#fab068"/>
</g>
</g>
<clipPath id="ea">
<path d="m61.352 80.965h4.7617v4.2461h-4.7617z"/>
</clipPath>
<mask id="bo">
<g filter="url(#a)">
<rect width="240.95" height="155.91" fill-opacity=".89999"/>
</g>
</mask>
<clipPath id="dx">
<path d="m0.35156 0.96484h4.7617v4.2461h-4.7617z"/>
</clipPath>
<clipPath id="dy">
<rect width="6" height="6"/>
</clipPath>
<g id="q" clip-path="url(#dy)">
<g clip-path="url(#dx)">
<path d="m3.6836 1.3164c-1.207-0.64844-2.6094-0.375-3.1328 0.60156-0.52344 0.98047 0.027344 2.2969 1.2344 2.9414 1.207 0.64453 2.6094 0.375 3.1328-0.60156 0.52344-0.98047-0.027344-2.2969-1.2344-2.9414" fill="#b8bde1"/>
</g>
</g>
<clipPath id="dw">
<path d="m89.52 59.645h1.3945v1.3906h-1.3945z"/>
</clipPath>
<mask id="bn">
<g filter="url(#a)">
<rect width="240.95" height="155.91" fill-opacity=".74001"/>
</g>
</mask>
<clipPath id="du">
<path d="m0.51953 0.64453h1.3945v1.3906h-1.3945z"/>
</clipPath>
<clipPath id="dv">
<rect width="2" height="3"/>
</clipPath>
<g id="p" clip-path="url(#dv)">
<g clip-path="url(#du)">
<path d="m1.3555 2.0195c0.37891-0.078125 0.62109-0.44531 0.54297-0.82031-0.078125-0.37891-0.44531-0.62109-0.82031-0.54297-0.37891 0.078125-0.62109 0.44922-0.54297 0.82422s0.44531 0.61719 0.82031 0.53906" fill="#fab068"/>
</g>
</g>
<clipPath id="dt">
<path d="m49.664 86.805h4.5273v3.7539h-4.5273z"/>
</clipPath>
<mask id="bm">
<g filter="url(#a)">
<rect width="240.95" height="155.91" fill-opacity=".7"/>
</g>
</mask>
<clipPath id="dr">
<path d="m0.66406 0.80469h4.5273v3.7539h-4.5273z"/>
</clipPath>
<clipPath id="ds">
<rect width="6" height="5"/>
</clipPath>
<g id="o" clip-path="url(#ds)">
<g clip-path="url(#dr)">
<path d="m3.3398 4.4883c1.2305-0.28125 2.0391-1.3203 1.8125-2.3164-0.23047-0.99609-1.4102-1.5781-2.6406-1.2969-1.2266 0.28125-2.0391 1.3203-1.8086 2.3164 0.22656 1 1.4102 1.5781 2.6367 1.2969" fill="#cc1e26"/>
</g>
</g>
<clipPath id="dq">
<path d="m82.258 88.875h2.9922v2.9922h-2.9922z"/>
</clipPath>
<mask id="bl">
<g filter="url(#a)">
<rect width="240.95" height="155.91" fill-opacity=".67999"/>
</g>
</mask>
<clipPath id="dn">
<path d="m0.25781 0.875h2.9922v2.9922h-2.9922z"/>
</clipPath>
<clipPath id="dp">
<rect width="4" height="4"/>
</clipPath>
<g id="n" clip-path="url(#dp)">
<g clip-path="url(#dn)">
<path d="m2.7812 3.4609c0.60156-0.57031 0.62891-1.5156 0.0625-2.1172-0.57031-0.59766-1.5156-0.625-2.1172-0.058594-0.60156 0.56641-0.62891 1.5156-0.058594 2.1133 0.56641 0.60156 1.5117 0.62891 2.1133 0.0625" fill="#fab068"/>
</g>
</g>
<clipPath id="dm">
<path d="m93.449 71.492h2.2617v2.2617h-2.2617z"/>
</clipPath>
<mask id="bj">
<g filter="url(#a)">
<rect width="240.95" height="155.91" fill-opacity=".64"/>
</g>
</mask>
<clipPath id="dk">
<path d="m0.44922 0.49219h2.2617v2.2617h-2.2617z"/>
</clipPath>
<clipPath id="dl">
<rect width="3" height="3"/>
</clipPath>
<g id="m" clip-path="url(#dl)">
<g clip-path="url(#dk)">
<path d="m1 2.5938c0.53516 0.32031 1.2305 0.14453 1.5508-0.39062 0.32031-0.53516 0.14844-1.2305-0.38672-1.5508-0.53516-0.32031-1.2305-0.14844-1.5547 0.38672-0.32031 0.53516-0.14453 1.2305 0.39062 1.5547" fill="#b8bde1"/>
</g>
</g>
<clipPath id="dj">
<path d="m75.602 87.379h1.7148v1.3086h-1.7148z"/>
</clipPath>
<mask id="bi">
<g filter="url(#a)">
<rect width="240.95" height="155.91" fill-opacity=".77"/>
</g>
</mask>
<clipPath id="dh">
<path d="m0.60156 0.37891h1.7148v1.3086h-1.7148z"/>
</clipPath>
<clipPath id="di">
<rect width="3" height="2"/>
</clipPath>
<g id="k" clip-path="url(#di)">
<g clip-path="url(#dh)">
<path d="m1.5938 0.40625c-0.46484-0.10156-0.90625 0.097656-0.98047 0.44531-0.078125 0.34766 0.24219 0.70703 0.70703 0.8125 0.46875 0.097656 0.91016-0.097657 0.98438-0.44531 0.074218-0.34766-0.24219-0.71094-0.71094-0.8125" fill="#fab068"/>
</g>
</g>
<clipPath id="dg">
<path d="m60.988 58.359h2.3711v1.3633h-2.3711z"/>
</clipPath>
<mask id="bh">
<g filter="url(#a)">
<rect width="240.95" height="155.91" fill-opacity=".81"/>
</g>
</mask>
<clipPath id="de">
<path d="m0.98828 0.35938h2.3711v1.3633h-2.3711z"/>
</clipPath>
<clipPath id="df">
<rect width="4" height="2"/>
</clipPath>
<g id="j" clip-path="url(#df)">
<g clip-path="url(#de)">
<path d="m2.3438 1.6289c0.64844-0.19141 1.0977-0.60938 1.0039-0.93359-0.09375-0.32422-0.69922-0.42969-1.3477-0.24219-0.64844 0.19141-1.0938 0.60938-1 0.93359s0.69922 0.42969 1.3438 0.24219" fill="#fab068"/>
</g>
</g>
<clipPath id="dc">
<path d="m57.621 79.363h1.9766v1.6133h-1.9766z"/>
</clipPath>
<mask id="bg">
<g filter="url(#a)">
<rect width="240.95" height="155.91" fill-opacity=".81"/>
</g>
</mask>
<clipPath id="da">
<path d="m0.62109 0.36328h1.9766v1.6133h-1.9766z"/>
</clipPath>
<clipPath id="db">
<rect width="3" height="2"/>
</clipPath>
<g id="i" clip-path="url(#db)">
<g clip-path="url(#da)">
<path d="m1.6914 1.9688c0.54297-0.054687 0.94922-0.45703 0.90234-0.89844-0.042969-0.44141-0.51953-0.75391-1.0625-0.69922-0.54688 0.054687-0.94922 0.45703-0.90625 0.89844 0.046875 0.44141 0.52344 0.75391 1.0664 0.69922" fill="#b8bde1"/>
</g>
</g>
<clipPath id="cz">
<path d="m86.695 78.98h3.3086v3.3125h-3.3086z"/>
</clipPath>
<mask id="bf">
<g filter="url(#a)">
<rect width="240.95" height="155.91" fill-opacity=".73"/>
</g>
</mask>
<clipPath id="cx">
<path d="m0.69531 0.98047h3.3086v3.3125h-3.3086z"/>
</clipPath>
<clipPath id="cy">
<rect width="5" height="5"/>
</clipPath>
<g id="h" clip-path="url(#cy)">
<g clip-path="url(#cx)">
<path d="m1.3008 1.3555c-0.70703 0.58203-0.8125 1.625-0.23047 2.332 0.57812 0.70703 1.6211 0.80859 2.3281 0.23047 0.70703-0.58203 0.8125-1.625 0.23047-2.332-0.57812-0.70703-1.6211-0.80859-2.3281-0.23047" fill="#b8bde1"/>
</g>
</g>
<clipPath id="cw">
<path d="m58.609 64.902h4.6328v2.4883h-4.6328z"/>
</clipPath>
<mask id="be">
<g filter="url(#a)">
<rect width="240.95" height="155.91" fill-opacity=".92"/>
</g>
</mask>
<clipPath id="cu">
<path d="m0.60938 0.90234h4.6328v2.4883h-4.6328z"/>
</clipPath>
<clipPath id="cv">
<rect width="6" height="4"/>
</clipPath>
<g id="g" clip-path="url(#cv)">
<g clip-path="url(#cu)">
<path d="m3.1602 0.99609c-1.2695-0.26172-2.4062 0.046875-2.5391 0.67969-0.12891 0.63672 0.79688 1.3633 2.0703 1.6211 1.2734 0.26172 2.4062-0.042969 2.5391-0.67969 0.12891-0.63672-0.79688-1.3633-2.0703-1.6211" fill="#fab068"/>
</g>
</g>
<clipPath id="ct">
<path d="m71.391 52.016h8.1836v8.1836h-8.1836z"/>
</clipPath>
<mask id="bd">
<g filter="url(#a)">
<rect width="240.95" height="155.91" fill-opacity=".7"/>
</g>
</mask>
<clipPath id="cq">
<path d="m0.39062 0.015625h8.1836v8.1836h-8.1836z"/>
</clipPath>
<clipPath id="cr">
<rect width="9" height="9"/>
</clipPath>
<g id="f" clip-path="url(#cr)">
<g clip-path="url(#cq)">
<path d="m4.1992 0.023438c-2.2539 0.15625-3.957 2.1094-3.8008 4.3633 0.15625 2.2578 2.1133 3.957 4.3672 3.8008 2.2539-0.15234 3.9531-2.1094 3.7969-4.3633s-2.1094-3.957-4.3633-3.8008" fill="#cc1e26"/>
</g>
</g>
<clipPath id="cp">
<path d="m72.527 73.746h2.1641v2.1641h-2.1641z"/>
</clipPath>
<mask id="bc">
<g filter="url(#a)">
<rect width="240.95" height="155.91" fill-opacity=".88"/>
</g>
</mask>
<clipPath id="cn">
<path d="m0.52734 0.74609h2.1641v2.1641h-2.1641z"/>
</clipPath>
<clipPath id="co">
<rect width="3" height="3"/>
</clipPath>
<g id="e" clip-path="url(#co)">
<g clip-path="url(#cn)">
<path d="m0.78516 1.1289c-0.38672 0.45312-0.33203 1.1367 0.125 1.5234 0.45312 0.38672 1.1367 0.32812 1.5234-0.125 0.38672-0.45703 0.32812-1.1367-0.125-1.5234-0.45703-0.38672-1.1367-0.33203-1.5234 0.125" fill="#b8bde1"/>
</g>
</g>
<clipPath id="cm">
<path d="m92.262 84.57h2.7461v2.75h-2.7461z"/>
</clipPath>
<mask id="bb">
<g filter="url(#a)">
<rect width="240.95" height="155.91" fill-opacity=".98"/>
</g>
</mask>
<clipPath id="ck">
<path d="m0.26172 0.57031h2.7461v2.75h-2.7461z"/>
</clipPath>
<clipPath id="cl">
<rect width="4" height="4"/>
</clipPath>
<g id="d" clip-path="url(#cl)">
<g clip-path="url(#ck)">
<path d="m1.2656 0.62109c-0.73047 0.20312-1.1602 0.96094-0.95703 1.6914 0.20703 0.73047 0.96094 1.1602 1.6914 0.95703s1.1602-0.96094 0.95703-1.6914-0.96094-1.1602-1.6914-0.95703" fill="#bdca30"/>
</g>
</g>
<clipPath id="cj">
<path d="m63.324 71.176h7.625v7.625h-7.625z"/>
</clipPath>
<mask id="ba">
<g filter="url(#a)">
<rect width="240.95" height="155.91" fill-opacity=".7"/>
</g>
</mask>
<clipPath id="cg">
<path d="m0.32422 0.17578h7.625v7.6211h-7.625z"/>
</clipPath>
<clipPath id="ci">
<rect width="8" height="8"/>
</clipPath>
<g id="c" clip-path="url(#ci)">
<g clip-path="url(#cg)">
<path d="m0.35156 3.5469c-0.24219 2.0898 1.2539 3.9805 3.3477 4.2266 2.0898 0.24219 3.9805-1.2539 4.2266-3.3477 0.24219-2.0898-1.2578-3.9844-3.3477-4.2266-2.0938-0.24219-3.9844 1.2578-4.2266 3.3477" fill="#cc1e26"/>
</g>
</g>
<clipPath id="cf">
<path d="m80.41 82.461h3.7305v3.7305h-3.7305z"/>
</clipPath>
<mask id="ay">
<g filter="url(#a)">
<rect width="240.95" height="155.91" fill-opacity=".92999"/>
</g>
</mask>
<clipPath id="cd">
<path d="m0.41016 0.46094h3.7305v3.7305h-3.7305z"/>
</clipPath>
<clipPath id="ce">
<rect width="5" height="5"/>
</clipPath>
<g id="b" clip-path="url(#ce)">
<g clip-path="url(#cd)">
<path d="m3.7656 1.207c-0.61719-0.82031-1.7852-0.98828-2.6094-0.37109-0.82422 0.61719-0.98828 1.7852-0.37109 2.6094 0.61719 0.82422 1.7852 0.99219 2.6094 0.37109 0.82422-0.61719 0.99219-1.7852 0.37109-2.6094" fill="#bdca30"/>
</g>
</g>
<clipPath id="cc">
<path d="m73.793 76.527h5.3164v5.3203h-5.3164z"/>
</clipPath>
<mask id="ax">
<g filter="url(#a)">
<rect width="240.95" height="155.91" fill-opacity=".89999"/>
</g>
</mask>
<clipPath id="ca">
<path d="m0.79297 0.52734h5.3164v5.3203h-5.3164z"/>
</clipPath>
<clipPath id="cb">
<rect width="7" height="6"/>
</clipPath>
<g id="ak" clip-path="url(#cb)">
<g clip-path="url(#ca)">
<path d="m5.0195 5.3359c1.1875-0.86719 1.4453-2.5312 0.57812-3.7188-0.86719-1.1836-2.5312-1.4414-3.7148-0.57812-1.1875 0.86719-1.4453 2.5312-0.57812 3.7188 0.86719 1.1836 2.5312 1.4414 3.7148 0.57812" fill="#bdca30"/>
</g>
</g>
<clipPath id="bz">
<path d="m88.246 86.105h2.4219v2.4258h-2.4219z"/>
</clipPath>
<mask id="aw">
<g filter="url(#a)">
<rect width="240.95" height="155.91" fill-opacity=".98"/>
</g>
</mask>
<clipPath id="bx">
<path d="m0.24609 0.10547h2.4219v2.4258h-2.4219z"/>
</clipPath>
<clipPath id="by">
<rect width="3" height="3"/>
</clipPath>
<g id="aj" clip-path="url(#by)">
<g clip-path="url(#bx)">
<path d="m2.3516 0.5c-0.45312-0.49219-1.2188-0.52734-1.7109-0.074219-0.49609 0.44922-0.53125 1.2188-0.078125 1.7109 0.45312 0.49609 1.2188 0.52734 1.7148 0.078125 0.49219-0.45312 0.52734-1.2188 0.074219-1.7148" fill="#bdca30"/>
</g>
</g>
<clipPath id="gb">
<path d="m62.527 51.961h1.6172v1.5469h-1.6172z"/>
</clipPath>
<mask id="av">
<g filter="url(#a)">
<rect width="240.95" height="155.91" fill-opacity=".53"/>
</g>
</mask>
<clipPath id="fz">
<path d="m0.52734 0.96484h1.6172v1.543h-1.6172z"/>
</clipPath>
<clipPath id="ga">
<rect width="3" height="3"/>
</clipPath>
<g id="ai" clip-path="url(#ga)">
<g clip-path="url(#fz)">
<path d="m0.60156 1.3555c-0.1875 0.40625-0.015625 0.88672 0.39062 1.0781 0.40625 0.1875 0.89062 0.011719 1.0781-0.39453 0.19141-0.40625 0.011718-0.88672-0.39062-1.0742" fill="#fab068"/>
</g>
</g>
<clipPath id="fy">
<path d="m50.766 79.344h1.6523v1.6523h-1.6523z"/>
</clipPath>
<mask id="au">
<g filter="url(#a)">
<rect width="240.95" height="155.91" fill-opacity=".98"/>
</g>
</mask>
<clipPath id="fw">
<path d="m0.76562 0.34375h1.6523v1.6523h-1.6523z"/>
</clipPath>
<clipPath id="fx">
<rect width="3" height="2"/>
</clipPath>
<g id="ah" clip-path="url(#fx)">
<g clip-path="url(#fw)">
<path d="m1.1094 0.5c-0.37109 0.26562-0.45703 0.78125-0.1875 1.1523 0.26562 0.37109 0.78125 0.45312 1.1523 0.19141 0.37109-0.26953 0.45312-0.78516 0.1875-1.1562s-0.78125-0.45312-1.1523-0.1875" fill="#bdca30"/>
</g>
</g>
<clipPath id="fv">
<path d="m47.633 72.559h3.3203v4.3867h-3.3203z"/>
</clipPath>
<mask id="at">
<g filter="url(#a)">
<rect width="240.95" height="155.91" fill-opacity=".98"/>
</g>
</mask>
<clipPath id="ft">
<path d="m0.63281 0.55859h3.3203v4.3867h-3.3203z"/>
</clipPath>
<clipPath id="fu">
<rect width="4" height="5"/>
</clipPath>
<g id="af" clip-path="url(#fu)">
<g clip-path="url(#ft)">
<path d="m0.67969 3.043c0.21484 1.1992 1.1094 2.043 2 1.8867 0.89453-0.16016 1.4414-1.2656 1.2266-2.4648-0.21875-1.2031-1.1133-2.0469-2.0039-1.8867-0.89062 0.15625-1.4375 1.2617-1.2227 2.4648" fill="#bdca30"/>
</g>
</g>
<clipPath id="fs">
<path d="m75.141 91.797h5.3125v5.3125h-5.3125z"/>
</clipPath>
<mask id="as">
<g filter="url(#a)">
<rect width="240.95" height="155.91" fill-opacity=".7"/>
</g>
</mask>
<clipPath id="fp">
<path d="m0.14062 0.79688h5.3125v5.3125h-5.3125z"/>
</clipPath>
<clipPath id="fq">
<rect width="6" height="7"/>
</clipPath>
<g id="ag" clip-path="url(#fq)">
<g clip-path="url(#fp)">
<path d="m0.1875 2.9609c-0.27344 1.4375 0.67578 2.8281 2.1172 3.1016 1.4414 0.26953 2.832-0.67578 3.1016-2.1211 0.27344-1.4375-0.67578-2.8281-2.1172-3.0977-1.4414-0.27344-2.8281 0.67578-3.1016 2.1172" fill="#cc1e26"/>
</g>
</g>
</defs>
<path d="m202.28 198.45h-167.92v-167.94h167.92z" fill="#fff"/>
<g transform="matrix(4.6303 0 0 4.6303 -213.06 -233.11)" clip-path="url(#gd)" fill="#bec2e3">
<use transform="translate(68,59)" width="100%" height="100%" fill="#bec2e3" mask="url(#bw)" xlink:href="#l"/>
</g>
<g transform="matrix(4.6303 0 0 4.6303 -213.06 -233.11)" clip-path="url(#ek)" fill="#bec2e3">
<use transform="translate(58,85)" width="100%" height="100%" fill="#bec2e3" mask="url(#bv)" xlink:href="#al"/>
</g>
<g transform="matrix(4.6303 0 0 4.6303 -213.06 -233.11)" clip-path="url(#dd)" fill="#fab774">
<use transform="translate(53,58)" width="100%" height="100%" fill="#fab774" mask="url(#bk)" xlink:href="#ae"/>
</g>
<g transform="matrix(4.6303 0 0 4.6303 -213.06 -233.11)" clip-path="url(#gc)" fill="#fab774">
<use transform="translate(55,72)" width="100%" height="100%" fill="#fab774" mask="url(#az)" xlink:href="#ad"/>
</g>
<g transform="matrix(4.6303 0 0 4.6303 -213.06 -233.11)" clip-path="url(#fn)" fill="#bfcb35">
<use transform="translate(77,73)" width="100%" height="100%" fill="#bfcb35" mask="url(#ar)" xlink:href="#ac"/>
</g>
<g transform="matrix(4.6303 0 0 4.6303 -213.06 -233.11)" clip-path="url(#fk)" fill="#bfcb35">
<use transform="translate(83,71)" width="100%" height="100%" fill="#bfcb35" mask="url(#aq)" xlink:href="#ab"/>
</g>
<path d="m44.686 188.1h147.27v-147.25h-147.27zm159.09 11.847h-170.92v-170.94h170.92z" fill="#00637d"/>
<path d="m260.95 69.43c5.1187 0 7.1083-3.2195 7.1083-6.9636h5.9688v1.1214c0 5.7879-3.9792 11.323-13.186 11.323-9.8937 0-14.198-7.0902-14.198-16.369v-1.7364c0-9.2787 4.3048-16.369 14.198-16.369 9.2064 0 13.186 5.7336 13.186 11.757v1.3204h-5.9688c0-4.4314-2.1162-7.5966-7.1083-7.5966-5.5889 0-8.0126 4.2867-8.0126 10.888v1.7364c0 6.6018 2.4236 10.888 8.0126 10.888" fill="#cc1e26"/>
<path d="m285.48 55.304h16.297c-0.23522-6.222-2.7854-9.8937-8.1392-9.8937s-7.9765 3.6717-8.1573 9.8937m0 4.7388c0.25328 6.4029 2.9844 9.8937 8.6457 9.8937 5.4804 0 7.9764-3.3642 7.9764-6.3486h5.9688v0.25323c0 5.5347-4.6123 11.069-13.999 11.069-10.328 0-14.868-7.2168-14.868-16.477v-1.5012c0-9.2787 4.5942-16.495 14.542-16.495 9.9118 0 14.325 7.2168 14.325 16.495v3.111" fill="#cc1e26"/>
<path d="m334.95 74.169v-21.849c0-4.1058-2.1705-6.4029-6.222-6.4029-4.4856 0-6.8369 2.6046-7.9584 4.4133v23.839h-6.222v-23.64l-0.43386-9.3511h5.3358l0.68728 4.5399c1.9896-2.9844 5.4804-5.2815 10.889-5.2815 6.9093 0 10.093 4.7931 10.093 10.888v22.844" fill="#cc1e26"/>
<path d="m366.75 41.178v5.5347h-9.8213v16.803c0 4.7931 2.0438 5.9145 5.7879 5.9145 1.3023 0 2.912-0.3075 3.4185-0.48835v5.2272c-0.50647 0.25323-2.1162 0.74158-4.8654 0.74158-6.222 0-10.563-2.8578-10.563-10.708v-17.49h-5.173v-5.5347h5.173v-9.333h6.222v9.333" fill="#cc1e26"/>
<path d="m388.83 40.509v5.9688h-1.1214c-4.6665 0-7.0178 2.4237-8.2115 4.2324v23.459h-6.222v-23.64l-0.43386-9.3511h5.3538l0.61495 4.2324c1.8811-2.7854 4.8654-4.974 9.0978-4.974 0.36162 0 0.81391 0.07237 0.92245 0.07237" fill="#cc1e26"/>
<path d="m414.91 58.542v-1.7364c0-6.6018-2.5503-10.888-8.1573-10.888-5.5889 0-8.1392 4.2867-8.1392 10.888v1.7364c0 6.6018 2.5503 10.888 8.1392 10.888 5.607 0 8.1573-4.2867 8.1573-10.888m-22.591 0v-1.7364c0-9.2787 4.4132-16.369 14.434-16.369 10.02 0 14.434 7.0902 14.434 16.369v1.7364c0 9.2787-4.4132 16.369-14.434 16.369-10.02 0-14.434-7.0902-14.434-16.369" fill="#cc1e26"/>
<path d="m459.46 64.836c0-3.6174-2.1162-4.6665-7.6509-5.1006-9.0255-0.81392-12.064-3.6174-12.064-8.9712v-0.43409c0-6.3486 5.0282-9.8937 12.824-9.8937 9.2606 0 12.878 4.5399 12.878 11.196v0.25323h-6.1678c0-3.9792-1.6821-6.4752-6.7103-6.4752-4.1782 0-6.6019 1.7545-6.6019 4.7931 0 2.9844 1.3565 4.4856 7.3434 4.9921 8.2658 0.61497 12.498 2.7854 12.498 9.134v0.37982c0 6.0954-4.5942 10.201-13.24 10.201-9.4596 0-13.204-5.1548-13.204-10.708v-0.23513h6.1677c0 3.0929 1.6098 5.9688 7.036 5.9688 4.5941 0 6.8912-2.0619 6.8912-5.1006" fill="#cc1e26"/>
<path d="m491.02 41.178v5.5347h-9.8394v16.803c0 4.7931 2.062 5.9145 5.7879 5.9145 1.3023 0 2.9302-0.3075 3.4185-0.48835v5.2272c-0.48832 0.25323-2.1162 0.74158-4.8654 0.74158-6.2039 0-10.563-2.8578-10.563-10.708v-17.49h-5.1548v-5.5347h5.1548v-9.333h6.222v9.333" fill="#cc1e26"/>
<path d="m503.4 41.178v21.849c0 4.1058 2.1885 6.4029 6.1677 6.4029 4.4675 0 6.8369-2.6046 8.0307-4.4133v-23.839h6.222v23.658l0.43386 9.333h-5.4261l-0.66922-4.5399c-2.0077 2.9844-5.4804 5.2815-10.907 5.2815-6.8369 0-10.075-4.7931-10.075-10.888v-22.844" fill="#cc1e26"/>
<path d="m552 50.33c-1.1214-1.8087-3.4185-4.4133-7.3976-4.4133-5.4081 0-7.8499 4.16-7.8499 10.888v1.7364c0 6.7284 2.4418 10.888 7.8499 10.888 3.9792 0 6.2762-2.6046 7.3976-4.4133zm0-5.7155v-20.24h6.2944v40.461l0.43386 9.333h-5.4262l-0.66898-4.2867c-1.8087 2.8578-4.7931 5.0282-9.6586 5.0282-9.0255 0-12.498-7.0902-12.498-16.369v-1.7364c0-9.2787 3.4727-16.369 12.498-16.369 4.3048 0 7.1625 1.7364 9.0255 4.1781" fill="#cc1e26"/>
<path d="m566.25 41.178h6.222v32.991h-6.222zm6.6561-6.8369h-7.0902v-7.0902h7.0902z" fill="#cc1e26"/>
<path d="m258.53 121.85c0.63305 0.94053 2.3152 2.5503 4.7931 2.5503 3.111 0 4.1782-2.2428 4.1782-6.2943v-2.4779c0-4.0515-1.0671-6.2943-4.1782-6.2943-2.4779 0-4.16 1.6278-4.7931 2.5684zm0 9.0255v14.94h-11.449v-36.102l-0.61496-9.333h10.328l0.68728 3.8526c1.863-2.7854 4.7931-4.7207 9.2606-4.7207 9.0255 0 12.137 6.4571 12.137 16.116v2.4779c0 9.6586-3.111 16.134-12.137 16.134-3.7259 0-6.3305-1.3204-8.2115-3.3642" fill="#00637d"/>
<path d="m300.22 123.22c0-1.3746-0.61496-2.2428-3.7259-2.496-9.4596-0.74157-13.873-2.8035-13.873-9.3872v-0.63305c0-8.1573 6.4571-11.196 14.307-11.196 9.8936 0 14.307 4.16 14.307 11.449v0.3075h-11.196c0-1.9896-1.049-3.1833-3.111-3.1833-2.062 0-3.111 0.94053-3.111 2.2609 0 1.5555 0.81392 2.1162 3.5993 2.3513 8.284 0.68731 14.253 2.1705 14.253 9.4053v0.61496c0 7.2168-4.8474 11.522-14.741 11.522-9.7128 0-14.741-4.3048-14.741-11.142v-0.32556h11.377c0 1.8087 0.99482 2.8759 3.3642 2.8759 2.496 0 3.2918-1.1214 3.2918-2.4237" fill="#00637d"/>
<path d="m316.41 100.38h11.449v32.991h-11.449zm11.63-3.726h-11.829v-11.829h11.829z" fill="#00637d"/>
<path d="m347.9 124.4c2.2247 0 3.5993-1.3023 3.5993-3.4908h10.78v1.5012c0 7.2168-5.0463 11.829-14.633 11.829-10.635 0-15.247-6.4752-15.247-16.116v-2.496c0-9.6586 4.6122-16.116 15.247-16.116 9.5862 0 14.633 4.5941 14.633 12.444v1.5012h-10.78c0-2.8759-1.3746-4.1239-3.5993-4.1239-3.0568 0-4.1058 2.2428-4.1058 6.2943v2.496c0 4.0334 1.049 6.2762 4.1058 6.2762" fill="#00637d"/>
<path d="m385.59 118.12v-2.496c0-4.0515-1.3566-6.2943-4.4675-6.2943-3.111 0-4.4856 2.2428-4.4856 6.2943v2.496c0 4.0334 1.3746 6.2762 4.4856 6.2762 3.111 0 4.4675-2.2428 4.4675-6.2762m-20.348 0v-2.496c0-9.6405 4.9921-16.116 15.881-16.116 10.888 0 15.862 6.4752 15.862 16.116v2.496c0 9.6405-4.974 16.098-15.862 16.098-10.888 0-15.881-6.4571-15.881-16.098" fill="#00637d"/>
<path d="m439.13 133.37v-20.547c0-1.863-0.68732-3.4908-3.1833-3.4908-2.1705 0-3.4908 1.3204-4.1058 2.2428v21.795h-11.449v-20.547c0-1.863-0.68733-3.4908-3.1834-3.4908-2.1705 0-3.4727 1.3204-4.1058 2.2428v21.795h-11.449v-23.658l-0.63305-9.333h10.346l0.68733 3.7983c2.0438-2.8035 5.2272-4.6665 9.8394-4.6665 4.3951 0 7.1444 2.0438 8.6456 5.0282 1.9896-2.9844 5.2815-5.0282 10.075-5.0282 7.1626 0 9.9661 5.2272 9.9661 11.449v22.41" fill="#00637d"/>
<path d="m475.22 118.12v-2.496c0-4.0515-1.3746-6.2943-4.4856-6.2943-3.111 0-4.4856 2.2428-4.4856 6.2943v2.496c0 4.0334 1.3746 6.2762 4.4856 6.2762 3.111 0 4.4856-2.2428 4.4856-6.2762m-20.366 0v-2.496c0-9.6405 4.9921-16.116 15.881-16.116 10.888 0 15.881 6.4752 15.881 16.116v2.496c0 9.6405-4.9921 16.098-15.881 16.098-10.888 0-15.881-6.4571-15.881-16.098" fill="#00637d"/>
<path d="m512.67 100.38v9.9479h-7.9041v9.6586c0 3.726 1.8087 4.4133 4.4133 4.4133 0.99477 0 2.5503-0.25323 2.8578-0.37982v9.3511c-0.54263 0.28939-2.4237 0.86818-5.5347 0.86818-7.9041 0-13.186-3.3642-13.186-13.005v-10.907h-4.974v-9.9479h4.974v-9.333h11.449v9.333" fill="#00637d"/>
<path d="m537.87 99.564v11.702h-1.863c-3.726 0-5.9145 1.248-6.6561 2.1886v19.914h-11.449v-23.658l-0.61495-9.333h10.328l0.68728 3.6717c1.9715-2.7312 4.9016-4.5399 8.6457-4.5399 0.30746 0 0.61496 0 0.92246 0.05427" fill="#00637d"/>
<path d="m542.66 100.38h11.449v32.991h-11.449zm11.648-3.726h-11.829v-11.829h11.829z" fill="#00637d"/>
<path d="m574.15 124.4c2.2428 0 3.5993-1.3023 3.5993-3.4908h10.78v1.5012c0 7.2168-5.0464 11.829-14.633 11.829-10.635 0-15.247-6.4752-15.247-16.116v-2.496c0-9.6586 4.6123-16.116 15.247-16.116 9.5862 0 14.633 4.5941 14.633 12.444v1.5012h-10.78c0-2.8759-1.3565-4.1239-3.5993-4.1239-3.0386 0-4.1058 2.2428-4.1058 6.2943v2.496c0 4.0334 1.0672 6.2762 4.1058 6.2762" fill="#00637d"/>
<path d="m592.94 100.38h11.449v32.991h-11.449zm11.648-3.726h-11.829v-11.829h11.829z" fill="#00637d"/>
<path d="m632.65 100.38v9.9479h-7.9041v9.6586c0 3.726 1.8087 4.4133 4.4132 4.4133 0.99483 0 2.5503-0.25323 2.8578-0.37982v9.3511c-0.54263 0.28939-2.4237 0.86818-5.5347 0.86818-7.9041 0-13.186-3.3642-13.186-13.005v-10.907h-4.974v-9.9479h4.974v-9.333h11.449v9.333" fill="#00637d"/>
<path d="m655.42 123.22v-5.0463l-4.4856 0.68731c-2.6588 0.4341-3.2376 1.6098-3.2376 3.111v0.37982c0 1.3023 0.88629 2.6769 3.2376 2.6769 1.9353 0 3.5451-0.94053 4.4856-1.8087m-3.2376-38.399 5.6613 11.829h-11.323l-6.9093-11.829zm4.359 45.435c-2.2971 2.4237-5.607 3.9792-9.948 3.9792-7.7775 0-10.274-4.9197-10.274-10.219v-0.61496c0-7.1625 4.7931-9.5862 12.136-10.708l6.9636-1.1214c-0.12641-2.3513-1.049-3.4908-3.5451-3.4908-2.8035 0-3.5451 1.6278-3.5451 3.1833h-10.762v-0.56071c0-5.9688 3.4185-11.196 14.614-11.196 11.268 0 14.687 4.5399 14.687 12.697v11.811l0.63301 9.333h-10.346" fill="#00637d"/>
<path d="m267.12 158.76v11.684h-1.863c-3.726 0-5.9145 1.2661-6.6561 2.1886v19.914h-11.449v-23.658l-0.63305-9.3149h10.328l0.68727 3.6717c1.9896-2.7492 4.9197-4.558 8.6638-4.558 0.30745 0 0.61495 0 0.92245 0.0724" fill="#00637d"/>
<path d="m280.43 172.02h8.8446c-0.30745-3.4908-1.7364-4.7388-4.4132-4.7388-2.695 0-4.1239 1.248-4.4314 4.7388m0 8.085c0.37968 3.726 2.2428 4.7208 5.1186 4.7208 2.478 0 4.4133-1.3023 4.4133-2.8578h10.762v0.25323c0 6.6018-5.6613 11.196-15.247 11.196-11.268 0-16.496-6.7827-16.496-16.423v-1.863c0-9.6586 5.4804-16.441 16.134-16.441 10.635 0 15.609 6.7827 15.609 16.441v4.974" fill="#00637d"/>
<path d="m305.27 192.55h11.449v-49.776h-11.449z" fill="#00637d"/>
<path d="m340.36 182.4v-5.0282l-4.4675 0.66922c-2.6769 0.4341-3.2376 1.6278-3.2376 3.111v0.37982c0 1.3023 0.86818 2.6769 3.2376 2.6769 1.9172 0 3.5451-0.94053 4.4675-1.8087m1.1395 7.0359c-2.3152 2.4237-5.607 3.9792-9.9661 3.9792-7.7775 0-10.274-4.9197-10.274-10.201v-0.61496c0-7.1625 4.7931-9.5862 12.137-10.708l6.9635-1.1214c-0.10835-2.3694-1.049-3.4908-3.5451-3.4908-2.8035 0-3.5451 1.6278-3.5451 3.1833h-10.762v-0.5607c0-5.9869 3.4185-11.214 14.633-11.214 11.25 0 14.687 4.5399 14.687 12.697v11.829l0.61499 9.333h-10.328" fill="#00637d"/>
<path d="m369.37 169.27-6.7285 0.25323h-6.222v-9.966h27.999v7.8498l-13.565 15.428 6.7284-0.23513h7.47v9.948h-29.247v-7.8318" fill="#00637d"/>
<path d="m389.28 159.58h11.449v32.973h-11.449zm11.63-3.744h-11.829v-11.829h11.829z" fill="#00637d"/>
<path d="m425.62 177.3v-2.4779c0-4.0515-1.3746-6.2943-4.4856-6.2943-3.111 0-4.4856 2.2428-4.4856 6.2943v2.4779c0 4.0515 1.3746 6.2762 4.4856 6.2762 3.111 0 4.4856-2.2247 4.4856-6.2762m-20.348 0v-2.4779c0-9.6586 4.974-16.134 15.862-16.134 10.889 0 15.881 6.4752 15.881 16.134v2.4779c0 9.6405-4.992 16.116-15.881 16.116-10.888 0-15.862-6.4752-15.862-16.116" fill="#00637d"/>
<path d="m461.4 192.55v-20.221c0-1.5555-0.37968-3.7983-3.4908-3.7983-2.478 0-4.1601 1.6278-4.7931 2.5503v21.469h-11.449v-23.64l-0.615-9.333h10.328l0.74159 4.1058c2.1886-2.9301 5.5528-4.9921 10.454-4.9921 7.7956 0 10.274 5.8602 10.274 11.775v22.084" fill="#00637d"/>
<path d="m496.25 182.4v-5.0282l-4.4856 0.66922c-2.6769 0.4341-3.2376 1.6278-3.2376 3.111v0.37982c0 1.3023 0.86818 2.6769 3.2376 2.6769 1.9172 0 3.5451-0.94053 4.4856-1.8087m1.1033 7.0359c-2.297 2.4237-5.5889 3.9792-9.948 3.9792-7.7774 0-10.255-4.9197-10.255-10.201v-0.61496c0-7.1625 4.775-9.5862 12.118-10.708l6.9816-1.1214c-0.1264-2.3694-1.0672-3.4908-3.5451-3.4908-2.8035 0-3.5451 1.6278-3.5451 3.1833h-10.78v-0.5607c0-5.9869 3.4185-11.214 14.633-11.214 11.268 0 14.687 4.5399 14.687 12.697v11.829l0.61495 9.333h-10.328" fill="#00637d"/>
<path d="m513.42 192.55h11.449v-49.776h-11.449z" fill="#00637d"/>
<path d="m540.85 172.02h8.8446c-0.30746-3.4908-1.7364-4.7388-4.4133-4.7388-2.6769 0-4.1238 1.248-4.4314 4.7388m0 8.085c0.37969 3.726 2.2428 4.7208 5.1187 4.7208 2.478 0 4.4133-1.3023 4.4133-2.8578h10.762v0.25323c0 6.6018-5.6613 11.196-15.247 11.196-11.268 0-16.496-6.7827-16.496-16.423v-1.863c0-9.6586 5.4804-16.441 16.116-16.441 10.653 0 15.627 6.7827 15.627 16.441v4.974" fill="#00637d"/>
<g transform="matrix(4.6303 0 0 4.6303 -213.06 -233.11)" clip-path="url(#fh)" fill="#db6268">
<use transform="translate(87,64)" width="100%" height="100%" fill="#db6268" mask="url(#ap)" xlink:href="#aa"/>
</g>
<g transform="matrix(4.6303 0 0 4.6303 -213.06 -233.11)" clip-path="url(#fd)" fill="#bec2e3">
<use transform="translate(60,93)" width="100%" height="100%" fill="#bec2e3" mask="url(#ao)" xlink:href="#z"/>
</g>
<g transform="matrix(4.6303 0 0 4.6303 -213.06 -233.11)" clip-path="url(#fa)" fill="#bec2e3">
<use transform="translate(85,53)" width="100%" height="100%" fill="#bec2e3" mask="url(#an)" xlink:href="#y"/>
</g>
<g transform="matrix(4.6303 0 0 4.6303 -213.06 -233.11)" clip-path="url(#ex)" fill="#fab774">
<use transform="translate(82,63)" width="100%" height="100%" fill="#fab774" mask="url(#am)" xlink:href="#x"/>
</g>
<g transform="matrix(4.6303 0 0 4.6303 -213.06 -233.11)" clip-path="url(#et)" fill="#bec2e3">
<use transform="translate(67,67)" width="100%" height="100%" fill="#bec2e3" mask="url(#bu)" xlink:href="#w"/>
</g>
<g transform="matrix(4.6303 0 0 4.6303 -213.06 -233.11)" clip-path="url(#eq)" fill="#bfcb35">
<use transform="translate(50,66)" width="100%" height="100%" fill="#bfcb35" mask="url(#bt)" xlink:href="#v"/>
</g>
<g transform="matrix(4.6303 0 0 4.6303 -213.06 -233.11)" clip-path="url(#en)" fill="#bec2e3">
<use transform="translate(60,71)" width="100%" height="100%" fill="#bec2e3" mask="url(#bs)" xlink:href="#u"/>
</g>
<g transform="matrix(4.6303 0 0 4.6303 -213.06 -233.11)" clip-path="url(#ej)" fill="#bfcb35">
<use transform="translate(66,90)" width="100%" height="100%" fill="#bfcb35" mask="url(#br)" xlink:href="#t"/>
</g>
<g transform="matrix(4.6303 0 0 4.6303 -213.06 -233.11)" clip-path="url(#eg)" fill="#bec2e3">
<use transform="translate(75,67)" width="100%" height="100%" fill="#bec2e3" mask="url(#bq)" xlink:href="#s"/>
</g>
<path d="m113.16 165.98c1.7544 1.7002 4.576 1.6459 6.2762-0.10853 1.7002-1.7726 1.6459-4.5942-0.10853-6.2943-1.7725-1.7002-4.576-1.6459-6.2943 0.12659-1.7002 1.7545-1.6459 4.5761 0.12659 6.2762" fill="#fab774"/>
<g transform="matrix(4.6303 0 0 4.6303 -213.06 -233.11)" clip-path="url(#ed)" fill="#fab774">
<use transform="translate(78,59)" width="100%" height="100%" fill="#fab774" mask="url(#bp)" xlink:href="#r"/>
</g>
<g transform="matrix(4.6303 0 0 4.6303 -213.06 -233.11)" clip-path="url(#ea)" fill="#bec2e3">
<use transform="translate(61,80)" width="100%" height="100%" fill="#bec2e3" mask="url(#bo)" xlink:href="#q"/>
</g>
<g transform="matrix(4.6303 0 0 4.6303 -213.06 -233.11)" clip-path="url(#dw)" fill="#fab774">
<use transform="translate(89,59)" width="100%" height="100%" fill="#fab774" mask="url(#bn)" xlink:href="#p"/>
</g>
<g transform="matrix(4.6303 0 0 4.6303 -213.06 -233.11)" clip-path="url(#dt)" fill="#db6268">
<use transform="translate(49,86)" width="100%" height="100%" fill="#db6268" mask="url(#bm)" xlink:href="#o"/>
</g>
<g transform="matrix(4.6303 0 0 4.6303 -213.06 -233.11)" clip-path="url(#dq)" fill="#fab774">
<use transform="translate(82,88)" width="100%" height="100%" fill="#fab774" mask="url(#bl)" xlink:href="#n"/>
</g>
<g transform="matrix(4.6303 0 0 4.6303 -213.06 -233.11)" clip-path="url(#dm)" fill="#bec2e3">
<use transform="translate(93,71)" width="100%" height="100%" fill="#bec2e3" mask="url(#bj)" xlink:href="#m"/>
</g>
<g transform="matrix(4.6303 0 0 4.6303 -213.06 -233.11)" clip-path="url(#dj)" fill="#fab774">
<use transform="translate(75,87)" width="100%" height="100%" fill="#fab774" mask="url(#bi)" xlink:href="#k"/>
</g>
<g transform="matrix(4.6303 0 0 4.6303 -213.06 -233.11)" clip-path="url(#dg)" fill="#fab774">
<use transform="translate(60,58)" width="100%" height="100%" fill="#fab774" mask="url(#bh)" xlink:href="#j"/>
</g>
<g transform="matrix(4.6303 0 0 4.6303 -213.06 -233.11)" clip-path="url(#dc)" fill="#bec2e3">
<use transform="translate(57,79)" width="100%" height="100%" fill="#bec2e3" mask="url(#bg)" xlink:href="#i"/>
</g>
<g transform="matrix(4.6303 0 0 4.6303 -213.06 -233.11)" clip-path="url(#cz)" fill="#bec2e3">
<use transform="translate(86,78)" width="100%" height="100%" fill="#bec2e3" mask="url(#bf)" xlink:href="#h"/>
</g>
<g transform="matrix(4.6303 0 0 4.6303 -213.06 -233.11)" clip-path="url(#cw)" fill="#fab774">
<use transform="translate(58,64)" width="100%" height="100%" fill="#fab774" mask="url(#be)" xlink:href="#g"/>
</g>
<g transform="matrix(4.6303 0 0 4.6303 -213.06 -233.11)" clip-path="url(#ct)" fill="#db6268">
<use transform="translate(71,52)" width="100%" height="100%" fill="#db6268" mask="url(#bd)" xlink:href="#f"/>
</g>
<g transform="matrix(4.6303 0 0 4.6303 -213.06 -233.11)" clip-path="url(#cp)" fill="#bec2e3">
<use transform="translate(72,73)" width="100%" height="100%" fill="#bec2e3" mask="url(#bc)" xlink:href="#e"/>
</g>
<g transform="matrix(4.6303 0 0 4.6303 -213.06 -233.11)" clip-path="url(#cm)" fill="#bfcb35">
<use transform="translate(92,84)" width="100%" height="100%" fill="#bfcb35" mask="url(#bb)" xlink:href="#d"/>
</g>
<g transform="matrix(4.6303 0 0 4.6303 -213.06 -233.11)" clip-path="url(#cj)" fill="#db6268">
<use transform="translate(63,71)" width="100%" height="100%" fill="#db6268" mask="url(#ba)" xlink:href="#c"/>
</g>
<g transform="matrix(4.6303 0 0 4.6303 -213.06 -233.11)" clip-path="url(#cf)" fill="#bfcb35">
<use transform="translate(80,82)" width="100%" height="100%" fill="#bfcb35" mask="url(#ay)" xlink:href="#b"/>
</g>
<g transform="matrix(4.6303 0 0 4.6303 -213.06 -233.11)" clip-path="url(#cc)" fill="#bfcb35">
<use transform="translate(73,76)" width="100%" height="100%" fill="#bfcb35" mask="url(#ax)" xlink:href="#ak"/>
</g>
<g transform="matrix(4.6303 0 0 4.6303 -213.06 -233.11)" clip-path="url(#bz)" fill="#bfcb35">
<use transform="translate(88,86)" width="100%" height="100%" fill="#bfcb35" mask="url(#aw)" xlink:href="#aj"/>
</g>
<g transform="matrix(4.6303 0 0 4.6303 -213.06 -233.11)" clip-path="url(#gb)" fill="#fab774">
<use transform="translate(62,51)" width="100%" height="100%" fill="#fab774" mask="url(#av)" xlink:href="#ai"/>
</g>
<g transform="matrix(4.6303 0 0 4.6303 -213.06 -233.11)" clip-path="url(#fy)" fill="#bfcb35">
<use transform="translate(50,79)" width="100%" height="100%" fill="#bfcb35" mask="url(#au)" xlink:href="#ah"/>
</g>
<g transform="matrix(4.6303 0 0 4.6303 -213.06 -233.11)" clip-path="url(#fv)" fill="#bfcb35">
<use transform="translate(47,72)" width="100%" height="100%" fill="#bfcb35" mask="url(#at)" xlink:href="#af"/>
</g>
<g transform="matrix(4.6303 0 0 4.6303 -213.06 -233.11)" clip-path="url(#fs)" fill="#db6268">
<use transform="translate(75,91)" width="100%" height="100%" fill="#db6268" mask="url(#as)" xlink:href="#ag"/>
</g>
<path d="m104.48 218.22c-1.3746 2.7131-0.28939 6.023 2.4237 7.3976 2.695 1.3746 6.0049 0.2894 7.3796-2.4237 1.3746-2.7131 0.2894-6.0049-2.4056-7.3796-2.7131-1.3746-6.023-0.28939-7.3977 2.4056" fill="#bec2e3"/>
</svg>
